<svg width="157" height="76" viewBox="0 0 157 76" fill="none" xmlns="http://www.w3.org/2000/svg">
<g clip-path="url(#clip0_828_4679)">
<path d="M50.9455 11.3052C45.5346 6.14389 38.1939 2.96552 30.0955 2.96552C13.4735 2.96552 0 16.3388 0 32.8372C0 49.3356 13.4735 62.7088 30.0955 62.7088C38.5692 62.7088 46.2173 59.2289 51.6853 53.6384C46.8641 47.718 43.9764 40.1907 43.9764 32.0035C43.9764 24.2456 46.5711 17.0766 50.9455 11.3087V11.3052Z" fill="white"/>
<path d="M126.568 2.73495C118.638 2.73495 111.419 5.74659 106.004 10.6809C110.672 16.5516 113.46 23.9583 113.46 32.0035C113.46 40.5348 110.322 48.3494 105.132 54.3762C110.633 59.7965 118.206 63.1451 126.568 63.1451C143.373 63.1451 157 49.6229 157 32.94C157 16.2572 143.376 2.73495 126.568 2.73495Z" fill="white"/>
<path d="M21.94 13.3023L22.4189 13.2917L23.4696 13.3271L23.7448 13.3484L25.0242 13.5151H25.0385L25.4245 13.5932L26.2751 13.8025L26.9327 14.0011L27.4723 14.1927L28.2907 14.5261L28.6267 14.6822L28.6731 14.7035L28.9304 14.8312L29.756 15.2817L30.3171 15.6258L30.8282 15.9734L31.5286 16.5019L31.5751 16.5374L31.8539 16.7715L31.9504 16.8567L32.8474 17.7045L33.1905 18.0663L33.7587 18.7225L33.9696 18.985L34.2519 19.3575L34.6415 19.9144L35.0846 20.6168L35.4277 21.2269L35.7887 21.947L35.7994 21.9718L36.1354 22.7416L36.3319 23.2595L36.7215 24.4691L36.7572 24.6075L36.8859 25.1112L36.9359 25.3382L37.0574 25.9625L37.1468 26.5266L37.2361 27.3105L37.304 28.4137V28.6975L37.3112 28.8997V29.0558L37.2683 30.1058L37.1932 30.911L37.1146 31.4892L36.9574 32.3689L36.8501 32.8372L36.843 32.8691L36.7894 33.0926L36.4463 34.2596L36.2462 34.8272L35.9245 35.6253L35.6029 36.3241L35.5314 36.466L35.249 37.0052L34.7666 37.8353L34.4092 38.3851L33.8803 39.1229L33.6873 39.3748L33.4085 39.7189L32.9546 40.2439L32.1291 41.0952L31.9575 41.2584L31.375 41.7799L31.1927 41.9324L30.8925 42.1736L30.5851 42.4113L29.7989 42.9646L28.6981 43.6351L28.6481 43.6635L28.6124 43.6847L28.2157 43.894L27.4544 44.2559L26.5788 44.6177L26.2179 44.7489L25.6532 44.9334L24.942 45.1285L24.8848 45.1427L24.581 45.2136L23.6054 45.3981L22.9335 45.4868L22.2366 45.5471L21.3288 45.579H21.2502L20.7927 45.5719L19.8171 45.5045L19.2774 45.4406L18.4268 45.2952L17.8121 45.1604L17.1331 44.9724L16.0824 44.6141L15.9251 44.5503L15.5499 44.3942L14.7708 44.0253L14.6243 43.9508L14.392 43.8266L13.6986 43.4187L13.0196 42.9717L12.6872 42.7305L12.3656 42.4822L11.8188 42.0282L11.7366 41.9572L11.322 41.5777L10.8431 41.0988L10.1033 40.2723L10.0175 40.1694L9.82455 39.9211L9.56008 39.5663L9.25988 39.1407L9.14909 38.974L8.56297 38.002L8.4093 37.7218L7.95542 36.7924L7.88394 36.6292L7.79817 36.4306L7.40504 35.3947L7.35143 35.2316L7.11556 34.4334L6.99762 33.99L6.97618 33.8943L6.85824 33.3019L6.76532 32.7627L6.6724 32.1135L6.61879 31.5708L6.56518 30.7159L6.55446 30.3541V30.1129L6.56518 29.6375L6.58662 29.1232L6.64738 28.2966L6.69027 27.91L6.77247 27.346L6.88683 26.7217L6.96903 26.3208L7.04765 25.9874L7.16916 25.5262L7.40861 24.7174L7.55157 24.3024L7.95899 23.2489L8.01617 23.1176L8.23418 22.6494L8.58442 21.9506L8.61658 21.8938L9.2706 20.7871L9.34922 20.6629L10.039 19.6909L10.2141 19.4604L10.8288 18.7261L11.3506 18.1621L11.6865 17.8251L12.3906 17.1688L12.4907 17.0801L12.5943 16.9915L12.6908 16.9134L13.5521 16.2536L14.5242 15.5903L14.5528 15.5726L14.5778 15.5548L15.2497 15.1717L15.6178 14.9766L16.3254 14.629L16.74 14.4481L17.6656 14.0933L17.9051 14.0118L18.0123 13.9763L18.4483 13.8486L19.1559 13.6677L19.5133 13.5896L20.489 13.4265L20.975 13.3661L21.8578 13.3023H21.9328M22.5654 10.9363L21.9006 10.9788L21.4682 11.0178L20.5783 11.1385L20.053 11.2307L19.2882 11.401L18.6663 11.5606L18.5555 11.5925L18.0659 11.745L17.0473 12.1033L16.9258 12.153L16.6542 12.2665L15.8215 12.639L15.4498 12.8234L14.878 13.132L14.7601 13.1994L13.9095 13.7031L13.7558 13.7989L13.5986 13.9053L12.798 14.4764L12.0761 15.0334L11.8759 15.2001L11.6579 15.3845L11.5757 15.459L10.9968 15.9947L10.7073 16.2749L10.1569 16.846L9.56723 17.5058L9.35995 17.7506L8.8739 18.3678L8.74167 18.5416L8.60229 18.7296L8.59156 18.7474L7.88394 19.808L7.82676 19.9038L7.22992 20.9396L7.14415 21.1028L6.79748 21.798L6.62594 22.1634L6.56875 22.2876L6.32216 22.8764L6.10415 23.4227L6.06127 23.5468L5.71817 24.5933L5.59666 25.0083L5.43584 25.6433L5.40367 25.7781L5.19996 26.711L5.16423 26.9097L5.11419 27.2112L4.99625 28.059L4.9355 28.6514L4.89618 29.2296L4.86402 29.8823V29.9958L4.85687 30.4144L4.86759 31.0316L4.89261 31.5956L4.91405 31.961L4.99268 32.7591L5.13921 33.8233L5.1535 33.8978L5.17852 34.0255L5.19639 34.1071L5.42154 35.111L5.48587 35.3628L5.76463 36.3135L5.92546 36.7959L6.18278 37.4806L6.37577 37.9488L6.45439 38.1368L6.72243 38.7115L7.02978 39.318L7.39074 39.9636L7.67665 40.439L8.15198 41.1555L8.28779 41.3471L8.39143 41.4925L9.05974 42.351L9.14194 42.4503L9.17768 42.4929L9.96036 43.3371L10.3892 43.7592L10.8324 44.1636L10.8788 44.2062L11.4757 44.7135L11.7509 44.9334L12.0439 45.1498L12.7265 45.6251L13.402 46.0543L13.7415 46.253L14.106 46.4552H14.1096L14.8315 46.817L15.1282 46.9553L15.9787 47.303L16.7614 47.5832L17.1653 47.7074L17.7836 47.8776L18.3411 48.0124L18.4376 48.0337L19.7813 48.2572H19.8028L20.1923 48.3033L21.2002 48.3742H21.2609L21.8363 48.3884H22.3009L22.6798 48.3707H22.7727L24.0271 48.2536L24.4345 48.1969L25.3494 48.0337L25.9641 47.8954L26.0714 47.8705L26.6324 47.718L27.4723 47.459L27.8762 47.3172L28.1406 47.2178L29.0877 46.8205L29.8418 46.4587L30.2206 46.2636L30.2671 46.2388L30.3028 46.221L31.4179 45.5648L32.2541 45.0079L32.5186 44.8163L32.8724 44.5503L33.3192 44.192L33.58 43.9721L33.9088 43.6883L34.62 43.0178L35.2205 42.3971L35.585 41.9891L36.2283 41.2158L36.3891 41.0065L36.4999 40.8576L37.3004 39.7118L37.3826 39.5805L38.1117 38.3284L38.1617 38.2326L38.4584 37.6508L38.7765 36.9591L38.8908 36.6966L39.309 35.6147L39.5162 35.0045L39.745 34.2206L39.9022 33.6105L40.0023 33.1777L40.0666 32.8514L40.1595 32.3512L40.2846 31.5034L40.3454 30.9536L40.4061 30.127L40.4383 29.1693V28.9174V28.7294V28.4669L40.374 27.3531L40.2953 26.5478L40.2203 26.0086L40.1024 25.3134L39.9951 24.8026L39.9701 24.6926L39.8915 24.3592L39.6056 23.3305L39.3733 22.6139L39.1517 22.018L38.6907 20.9396L38.6514 20.8545L38.6013 20.7516L37.9831 19.5739L37.8937 19.4214L37.1754 18.2933L37.0896 18.1692L36.5321 17.4207L36.2926 17.1227L36.1354 16.9347L35.3956 16.1153L34.9739 15.6896L34.4271 15.1859L33.7409 14.6006L33.7016 14.5687L33.4157 14.3452L32.9939 14.033L32.3899 13.6216L31.9682 13.3555L31.3106 12.9795L30.3814 12.5006L30.335 12.4793L30.192 12.4119L29.9776 12.3162L29.0591 11.9472L28.4373 11.7273L27.8904 11.557L27.0613 11.3407L26.6861 11.2591L26.5931 11.2413L26.4788 11.22L25.4424 11.0569L24.942 11.0001L24.1665 10.9398L23.3659 10.9185H22.8656L22.5547 10.9363H22.5654Z" fill="#4C8A3F"/>
<path d="M25.4996 41.3152H25.5961L25.7712 41.3116L26.4824 41.301L26.8612 41.2939L27.1864 41.2868H27.458L28.4909 41.2619H28.5302L28.7732 41.2548L29.5166 41.2407L30.1349 41.23H30.2385L30.385 41.2229H30.5173L30.5065 41.191L30.4601 41.081L30.0169 39.9672L29.9383 39.7685L29.7775 39.3535L29.4665 38.5554L29.1413 37.704L28.8947 37.0513L28.7518 36.6682L28.4802 35.9339L28.3908 35.6892L28.0048 34.6214L27.8976 34.327L27.8726 34.2561L27.3937 32.8904L27.24 32.447L27.1078 32.0638L26.9005 31.4608L26.6396 30.684L26.4395 30.0774L26.0642 28.9139L25.9928 28.6904L25.7462 27.9064L25.5603 27.3211L25.5103 27.1544L25.471 27.0232L25.1314 25.9022L24.9528 25.3063L24.724 24.5259L24.4453 23.5575L24.3559 23.2382L24.1451 22.4897L24.07 22.2272L23.9807 21.908L23.9556 21.8087L23.6233 20.5316L23.4982 20.035L23.3481 19.4284L23.3159 19.2936L23.0658 18.2472L23.0372 18.1195V18.0982H22.9693H22.8049H22.5797L22.3331 18.1053H22.108L21.9436 18.1124H21.9257H21.8828H21.7792H21.7148H21.5075L21.1394 18.1266L20.7356 18.1372L20.4854 18.1443H20.3675L20.1924 18.155H20.103L19.9994 18.1621H19.9386L19.7849 18.1692L19.5741 18.1763L19.3454 18.1833L19.1345 18.1904H19.0702L18.9808 18.1975H18.9236L18.9093 18.2295L18.8879 18.2756L18.6091 18.868L18.3625 19.4072L18.2518 19.6519L18.2053 19.7512L17.7514 20.7941L17.5799 21.195L17.1617 22.1989L16.9902 22.6281L16.8758 22.9154L16.6542 23.4901L16.2897 24.4585L16.1753 24.7671L15.725 26.0264L15.6929 26.1186L15.6857 26.1434L15.3426 27.1686L15.2318 27.4985L15.1067 27.8781L14.8065 28.8216L14.5742 29.5808L14.4063 30.1519L14.0739 31.3047L14.0274 31.475L13.8845 32.0071L13.8273 32.227L13.6701 32.8194L13.6022 33.0819L13.3341 34.1816L13.1733 34.8697L13.0411 35.4728L12.8123 36.537L12.7837 36.6753L12.7551 36.8243L12.698 37.1187L12.5157 38.0942L12.4585 38.4348L12.3156 39.3287L12.2119 39.9991L12.2012 40.0772L12.1333 40.588L12.0439 41.301L12.262 41.3081L12.8266 41.3222H12.966L13.3341 41.3293H13.62L14.2312 41.3435H14.5028L14.7172 41.3471H15.3355L15.5642 41.3542H15.9573H16.1682H16.2004L16.2289 41.1413V41.1023L16.2897 40.6837L16.3219 40.4567V40.4248L16.4612 39.5628L16.4898 39.3854L16.6221 38.5802V38.5483L16.7114 38.0729L16.7865 37.6721L16.9044 37.0336V37.0052L16.958 36.7534V36.7463H16.9687H16.9902H17.3333L18.2946 36.7321H18.4269H18.5305L19.6313 36.7179H19.8993L20.0709 36.7108L21.1144 36.7001H21.4182L21.6505 36.693L22.4939 36.686H22.9836L23.248 36.6789H23.5125L23.9092 36.6753L23.9878 36.9236V36.9343L24.213 37.6012L24.2237 37.6331L24.4381 38.2751L24.5203 38.5093L24.8169 39.3748L24.8598 39.4954L24.9134 39.6515L25.1779 40.3929L25.2744 40.666L25.3923 40.9959L25.4102 41.0456L25.4281 41.0917L25.5031 41.2939L25.4996 41.3152ZM17.8515 32.6527L17.8801 32.5321L17.973 32.1667L18.1302 31.5424L18.2303 31.1593L18.2982 30.911L18.5019 30.1554L18.7378 29.297L18.7664 29.1976L18.8879 28.7684L19.2632 27.4843L19.2846 27.4169L19.306 27.3424L19.3525 27.1934L19.7099 26.0406L19.8171 25.7071L19.8385 25.6468L20.1566 24.6749L20.2424 24.4195L20.3996 23.9477L20.4032 23.9619L20.5033 24.4124L20.5569 24.6607L20.6141 24.9161L20.7821 25.6291L20.8714 26.0122L21.0572 26.7855L21.1895 27.3105L21.2073 27.3779L21.5326 28.6443L21.5576 28.733L21.6255 28.9884L21.6719 29.1551L21.9364 30.127L22.0401 30.496L22.1437 30.8578L22.3331 31.5318L22.4975 32.1064L22.5797 32.3937L22.6369 32.5924H22.3831H22.3653H22.1508L21.6719 32.5995L20.8249 32.6066H20.7249H20.5783L19.7099 32.6172L19.2667 32.6243H19.0594L18.7878 32.6314L18.1159 32.6421H17.8551L17.8515 32.6527Z" fill="#4C8A3F"/>
<path d="M78.718 64C96.5236 64 110.958 49.6731 110.958 32C110.958 14.3269 96.5236 0 78.718 0C60.9124 0 46.4781 14.3269 46.4781 32C46.4781 49.6731 60.9124 64 78.718 64Z" fill="white"/>
<path d="M135.446 14.9269L135.825 14.9376L136.561 14.9873L137.34 15.0759L137.923 15.1717L138.813 15.3562L139.016 15.4094L139.227 15.4661L140.231 15.7712L140.439 15.8421L140.535 15.8776L141.6 16.3246L142.229 16.6261L142.304 16.6651L142.712 16.885L143.18 17.1546L143.762 17.5236L144.377 17.9492L144.76 18.2366L145.099 18.5062L145.224 18.609L145.71 19.0347L146.429 19.7193L146.614 19.9109L147.075 20.4181L147.447 20.8615L147.583 21.0318L147.626 21.0886L148.24 21.9364L148.433 22.2237L148.966 23.0963L149.173 23.4723L149.459 24.0399L149.613 24.3627L149.763 24.6997L150.203 25.8277L150.228 25.9058L150.338 26.2428L150.599 27.1509L150.653 27.3637V27.3708L150.849 28.3463L150.999 29.3573L151.021 29.5559L151.046 29.8504L151.092 30.7904V31.0174H151.096V31.6488L151.082 32.0355L151.067 32.2909L150.974 33.2593L150.821 34.2809L150.789 34.4547L150.742 34.6711L150.71 34.8094L150.478 35.7105L150.421 35.9056L150.067 36.9449L149.892 37.3883L149.616 38.0091L149.548 38.1545L149.273 38.7044L148.855 39.4493L148.587 39.8856L148.047 40.6766L147.84 40.9533L147.808 40.9959L147.065 41.8934L146.997 41.9714L146.968 42.0033L146.103 42.8689L145.678 43.252L145.474 43.4222L145.149 43.6847L144.499 44.1743L144.152 44.4155L143.809 44.639L143.091 45.0646L142.576 45.3413L142.394 45.4335L141.968 45.6357L141.003 46.0366L140.782 46.1182L140.682 46.1536L139.545 46.4977L139.284 46.5651L138.959 46.6432L138.209 46.7886L137.458 46.895L136.811 46.9553L135.907 46.9943H135.7H135.328L134.492 46.9518L133.673 46.8666L133.127 46.7851L132.094 46.5793L132.065 46.5722L131.801 46.5048L131.365 46.3878L130.539 46.1217L130.053 45.9408L129.324 45.6322L128.749 45.3626L128.334 45.1498L128.145 45.0469L127.902 44.9121L127.015 44.3658L126.347 43.9011L125.947 43.5961L125.754 43.4435L125.185 42.9646L124.907 42.7092L124.817 42.6276L123.938 41.7266L123.556 41.2903L123.266 40.9356L123.034 40.6376L122.569 39.9956L122.176 39.3961L121.744 38.6618L121.433 38.0729L121.365 37.9346L121.083 37.3245L120.743 36.4909L120.572 36.0084L120.214 34.813L120.171 34.6392L120.146 34.5328L120.082 34.249L119.91 33.3302L119.825 32.7095L119.757 31.9965L119.71 30.8791V30.7939V30.6343L119.714 30.3186L119.775 29.2828L119.853 28.5698L119.946 27.9667L120.107 27.1438L120.114 27.1119L120.228 26.6543L120.264 26.5195L120.639 25.3205L120.818 24.8416L121.158 24.0435L121.297 23.749L121.515 23.3163L121.844 22.7203L122.273 22.0215L122.666 21.4468L123.145 20.8083L123.159 20.7906L123.674 20.1734L124.031 19.7832L124.914 18.9176L125 18.8396L125.296 18.5842L125.607 18.3288L126.025 18.006L126.472 17.6832L127.08 17.2859L127.916 16.7964L128.195 16.6474L128.402 16.541L128.559 16.4665L129.349 16.1117L129.985 15.8599L130.543 15.6683L131.475 15.3987L131.783 15.3242L131.879 15.303L131.947 15.2888L133.087 15.0866L133.516 15.0334L134.427 14.9589L135.132 14.9411H135.457M134.656 12.4332C122.301 12.4722 113.856 24.9551 117.595 36.4873C120.339 45.8273 130.779 51.886 140.242 48.9631C148.487 46.6503 153.969 38.0055 153.044 29.6162C152.415 20.6806 144.323 12.6354 135.303 12.4439L134.66 12.4332H134.656Z" fill="#4C8A3F"/>
<path d="M145.481 31.0103V31.5353V31.9042V32.8797L145.478 33.0074V33.2345L145.471 33.4579L145.442 34.5363V34.6959L145.406 35.6572L145.399 35.8275L145.392 35.9836L145.356 36.6647L145.331 37.1294L145.263 38.3354V38.378L145.256 38.417V38.4596L145.156 39.655L145.149 39.7544L145.106 40.251L144.938 40.4354L144.913 40.4603L144.745 40.6234L144.534 40.815L144.434 40.9001L144.298 41.0101L144.041 41.2087L143.945 41.2797L143.759 41.4145L143.455 41.6238L143.319 41.7124L143.126 41.8295L142.894 41.9643L142.772 42.0317L142.39 42.2268L142.329 42.2552L141.983 42.4113L141.747 42.5106L141.55 42.5886L141.425 42.6347L141.089 42.7518L140.607 42.9079L140.517 42.9363L140.099 43.0498L139.738 43.1349L139.567 43.1704L139.206 43.2342L138.998 43.2662L138.409 43.3442L138.176 43.369L137.798 43.3974H137.787L137.136 43.4293L136.679 43.44H136.461H136.304L135.839 43.4258L135.239 43.3797L134.703 43.3123L134.649 43.3052L134.077 43.1988L133.881 43.1562L133.52 43.0675L132.98 42.9043L132.901 42.8795L132.601 42.7695L132.455 42.7128L132.151 42.5851L131.951 42.4929L131.468 42.241L131.415 42.2091L131.004 41.9608L130.668 41.7302L130.561 41.6521L130.321 41.4641L130.139 41.3152L130.128 41.3045L129.731 40.9462L129.345 40.5489L129.331 40.5348L128.984 40.1304L128.884 40.0062L128.645 39.6834L128.448 39.389L128.334 39.2081L128.048 38.7079L128.034 38.6831L127.787 38.1794L127.705 37.9949L127.551 37.6295L127.448 37.3528L127.34 37.0478L127.155 36.4412L127.119 36.3099L127.044 36.0084L126.997 35.8098L126.901 35.3344L126.869 35.1535L126.794 34.6605L126.769 34.4689L126.744 34.249L126.697 33.7594L126.669 33.3054L126.654 33.0252L126.64 32.266V32.1845V32.1029V31.9539V31.9042V31.7269V31.6914V31.4679V31.2515V31.0529V30.8862V30.5988L126.651 30.1306L126.679 29.5417L126.69 29.4034L126.701 29.2509L126.737 28.8678L126.754 28.6975L126.851 28.02L126.869 27.9064L126.972 27.3673V27.3495L127.126 26.7394L127.173 26.5727L127.305 26.1399L127.505 25.5794L127.512 25.5617L127.641 25.246L127.744 25.0119L127.998 24.4904L128.205 24.1179L128.277 23.9938L128.309 23.9406L128.577 23.5256L128.902 23.0821L129.038 22.9154L129.253 22.6636L129.267 22.6494L129.624 22.2734L129.989 21.9364L130.017 21.9115L130.435 21.5745L130.704 21.3794L130.871 21.2659L131.043 21.156L131.322 20.9892L131.468 20.9077L131.79 20.7445L132.194 20.56L132.28 20.5246L132.783 20.333L133.305 20.1698H133.316L133.43 20.1344L133.473 20.1237L133.838 20.0386L134.392 19.9393L134.76 19.8896L134.96 19.8683L135.164 19.8506L135.543 19.8293L136.143 19.8186H136.182L136.693 19.8328L136.979 19.847L137.68 19.9073L137.773 19.918L138.119 19.9641L138.516 20.0315L139.22 20.1805L139.266 20.1911L139.449 20.2408L139.878 20.372L139.956 20.3969L140.492 20.6026L140.675 20.6806L141.064 20.8686H141.071L141.604 21.1773L141.793 21.2979L142.101 21.5107L142.408 21.7448L142.558 21.8725L142.805 22.0925L142.98 22.2627L143.366 22.6778L143.659 23.0431L143.695 23.0928L143.716 23.1247L144.03 23.6L144.316 24.1002L144.431 24.3201L144.449 24.3592L144.57 24.6252L144.792 25.1679L144.942 25.5936L144.985 25.732L145.038 25.9129L145.146 26.3173L145.267 26.8635L145.278 26.9238L145.381 27.5517L145.138 27.5411L144.992 27.534L144.506 27.5198L144.245 27.5127L143.627 27.4914H143.598L142.837 27.4701H142.647L142.176 27.4524L141.732 27.4453L141.368 27.4382L141.057 27.4311L140.796 27.424L140.735 27.1012L140.664 26.789L140.642 26.7039L140.582 26.4911L140.535 26.3492L140.485 26.2037L140.374 25.9306L140.253 25.6717L140.121 25.4233L140.103 25.395L139.974 25.1928L139.813 24.9764L139.806 24.9657L139.635 24.7742L139.442 24.5862L139.234 24.4159L139.013 24.2598L138.873 24.1747L138.784 24.125H138.777L138.673 24.0683L138.52 23.9973L138.244 23.8945L137.948 23.8093L137.633 23.7419L137.501 23.7207L137.297 23.6923L137.111 23.6745L136.943 23.6639L136.568 23.6533L136.264 23.6603L136 23.6816H135.968L135.682 23.7277H135.657L135.403 23.7916L135.135 23.8732L134.874 23.9725L134.846 23.9832L134.624 24.0896L134.427 24.1995L134.385 24.2244L134.156 24.3804L133.974 24.5259L133.938 24.5543L133.731 24.7458L133.538 24.9551L133.434 25.0828L133.355 25.1821L133.298 25.2602L133.18 25.4304L133.019 25.6965L132.869 25.9803L132.733 26.2818L132.683 26.4059L132.623 26.5691L132.608 26.6046L132.494 26.9451L132.426 27.1793L132.394 27.3034L132.305 27.6794L132.258 27.8993L132.226 28.0732L132.201 28.2221L132.162 28.4846L132.108 28.9139L132.079 29.2367L132.069 29.3644L132.04 29.8326L132.026 30.3186V30.5775V30.5846V30.5917V30.8259V30.9961V31.1983V31.4182V31.6453V31.8652V31.9361V32.0674V32.2377L132.033 32.7449L132.051 33.2345V33.2415V33.2877V33.3444L132.076 33.7027L132.119 34.1567L132.176 34.5931L132.183 34.6392L132.244 35.0116L132.326 35.4089L132.333 35.4373L132.423 35.7885L132.48 35.9836L132.533 36.1503L132.655 36.4944L132.791 36.8208L132.923 37.101L132.937 37.1294L133.041 37.3209L133.094 37.4131L133.262 37.6792L133.445 37.9275L133.641 38.1581L133.77 38.2929L133.852 38.3745L134.077 38.5696L134.167 38.6405L134.317 38.7469L134.567 38.9066L134.835 39.0484L134.856 39.0591L135.114 39.1726L135.407 39.2755L135.496 39.3038L135.714 39.3606L136.036 39.428L136.143 39.4457L136.368 39.4777L136.711 39.506L137.069 39.5167H137.154H137.347L137.601 39.5096H137.615L137.866 39.4919L138.105 39.467L138.334 39.4351L138.548 39.3996L138.598 39.389L138.748 39.3535L138.941 39.3038L139.124 39.2506L139.241 39.2116L139.295 39.1939L139.456 39.1336L139.606 39.0697L139.745 39.0023L139.849 38.9456L139.878 38.9278L139.999 38.8533L140.113 38.7789L140.217 38.7079L140.314 38.637L140.399 38.5696L140.457 38.5234L140.478 38.5057L140.546 38.4419L140.557 38.229L140.585 37.6792V37.6012L140.603 37.2393L140.614 36.9307V36.8243L140.639 36.1077L140.646 35.8985L140.66 35.3522L140.671 35.0116V34.7988L140.682 34.586H140.464H140.442H140.428H139.895L139.116 34.5789H138.966H138.923H138.252L137.465 34.5718H137.458H137.394H136.872L136.643 34.5682V34.366L136.654 33.8446L136.661 33.3338V33.3054V33.277V33.1316L136.665 32.3512V31.9361V31.6346V31.1132V30.911H136.729H137.176H137.948L138.33 30.9181H138.491L139.481 30.9287H139.828L140.264 30.9358L140.986 30.9429H141.321L142.154 30.9571H142.444L142.79 30.9642L143.83 30.9784H143.841L144.213 30.9855L145.035 30.9997H145.281L145.492 31.0068L145.481 31.0103Z" fill="#4C8A3F"/>
<path d="M78.7108 13.2455L79.347 13.2562L79.6222 13.2668L80.8659 13.3768L81.3591 13.4477L82.3419 13.6322L82.542 13.6783L83.1782 13.8379L83.7286 13.9976L84.74 14.3416L85.0652 14.4658L85.2403 14.5367L86.0766 14.9163L86.3446 15.0511L87.524 15.7003L87.5705 15.7286L87.6276 15.7641L88.7284 16.5126L89.2466 16.9063L89.5147 17.1227L89.8399 17.3994L90.7333 18.2366L90.8906 18.3962L90.9442 18.4529L91.8412 19.4746L91.8484 19.4852L92.1486 19.8648L92.7847 20.7622L93.0814 21.2234L93.6032 22.1279L93.8247 22.5536L93.8748 22.6565L94.3537 23.7277L94.4645 24.0115L94.8612 25.1786L94.9326 25.4233L94.9505 25.4836L95.0935 26.0441L95.2579 26.821L95.3937 27.6475L95.458 28.2115L95.5223 29.0451L95.5402 29.6375V29.8397V30.1483L95.5009 31.0777L95.4508 31.6807L95.3436 32.4895L95.1113 33.7062L95.1042 33.7382L95.072 33.8765L95.0613 33.9226L94.6432 35.3273L94.5145 35.6892L94.0892 36.7214L93.8355 37.2571L93.7854 37.3564L93.353 38.1581L92.9992 38.7469L92.4417 39.577L92.0878 40.0523L91.8448 40.3609L91.3087 40.9959L91.1229 41.1981L90.6047 41.7337L90.0793 42.2339L89.8792 42.4148L89.2323 42.954L88.9571 43.1704L87.985 43.8621L87.792 43.9863L87.5705 44.1281L86.5591 44.7064L86.0516 44.9653L85.4297 45.2526L85.2653 45.3236L85.1795 45.3591L83.9108 45.8273L83.0888 46.0756L82.5099 46.221L81.2483 46.4658L81.0017 46.5013L79.4685 46.6432H79.4506L79.3434 46.6467L78.6572 46.6609L77.8996 46.6467L77.7781 46.6396H77.7602L76.227 46.4871L76.0054 46.4516L74.8082 46.2139L74.7224 46.1927L74.172 46.0508L73.325 45.7918L72.1206 45.3413L71.9777 45.281L71.6953 45.1569L71.2701 44.9547L70.6947 44.6602L69.7798 44.1352L69.4724 43.9437L69.2044 43.7663L68.3252 43.1278L68.1 42.9505L67.3567 42.3226L67.2209 42.1984L66.8742 41.8685L66.1987 41.1697L65.9521 40.893L65.509 40.3609L65.2517 40.031L64.855 39.4883L64.3618 38.7398L63.9686 38.0729L63.5934 37.367L63.5398 37.2606L63.2574 36.654L62.8786 35.7246L62.7178 35.2706L62.339 33.9865L62.3032 33.8339L62.2818 33.7488L62.2246 33.4934L62.0388 32.4682L61.9494 31.7943L61.8887 31.0777L61.8493 29.971V29.8752V29.6588L61.8636 29.2509L61.9387 28.2505L62.0209 27.5801L62.1388 26.8777L62.3104 26.076L62.4283 25.6114L62.4605 25.4978L62.4676 25.4695L62.9251 24.1002L63.0645 23.7455L63.504 22.7593L63.5862 22.5926L63.8042 22.1705L64.2796 21.3369L64.6084 20.8225L65.2016 19.9818L65.5304 19.5597L65.5697 19.51L66.3846 18.5771L66.4811 18.4742L66.7563 18.194L67.5175 17.4774L67.807 17.2291L68.1679 16.9347L68.6182 16.5871L69.7583 15.8031H69.7619V15.7996L70.9734 15.1185L71.3344 14.9376L72.1063 14.5793L72.2421 14.5226L72.5066 14.4161L73.5716 14.0366L74.1291 13.8663L74.8689 13.6748L74.9511 13.657L75.9518 13.4584L76.4271 13.3874L77.6709 13.2633L77.9496 13.2491L78.7037 13.2313M78.7716 10.617L77.9282 10.6347L77.8067 10.6418L76.9025 10.7092L76.3164 10.7731L76.2377 10.7837L74.8618 11.0178L74.5866 11.0746L74.3078 11.1385L73.4823 11.3548L72.6317 11.6138L72.1635 11.777L71.2593 12.1246L70.8805 12.2842L70.6875 12.3729L70.205 12.6035L69.6547 12.8837L68.6111 13.4655L68.4681 13.5506L68.3073 13.6535L67.3424 14.3062L66.5454 14.8986L66.5097 14.9269L66.2559 15.1327L65.509 15.7783L65.2052 16.0621L65.098 16.1649L64.226 17.066L63.7935 17.5555L63.4969 17.9138L63.3039 18.1585L62.7642 18.8751L62.4069 19.393L61.8887 20.2124L61.6063 20.7019L61.1953 21.4859L61.1346 21.61L60.8737 22.1669L60.5556 22.9154L60.2161 23.8235L60.0696 24.2705L59.7086 25.5404V25.551L59.68 25.6539L59.6443 25.8065L59.4227 26.9735L59.3083 27.7894L59.2547 28.325L59.1975 29.1125L59.1761 29.7049V29.9887H59.1725V30.1767L59.1975 31.0954L59.2333 31.6914L59.3119 32.4682L59.487 33.6459L59.5192 33.8127L59.5406 33.9191L59.6657 34.4866L59.8408 35.1855L60.0052 35.7637L60.2768 36.5795L60.6021 37.4344L60.8129 37.9275L61.1167 38.5767L61.3168 38.9775L61.4955 39.3145L62.0816 40.3184L62.339 40.7228L62.9465 41.5883L63.2968 42.0459L63.404 42.1807L63.8686 42.7376L64.5655 43.5038L64.8371 43.7805L65.5697 44.4793L65.8771 44.7525L65.9986 44.8553L66.4132 45.1923L66.9743 45.6216L67.9607 46.3133L68.1108 46.4126L68.2823 46.519L69.308 47.1185L70.1193 47.5406L70.3409 47.6506L70.5553 47.7499L70.6625 47.7996L71.8597 48.2891L72.6388 48.5622L73.2071 48.7396L74.2399 49.0127L74.6009 49.0943H74.6116L76.1019 49.3497L76.2985 49.3746L77.628 49.4916L78.0354 49.5094L78.7216 49.52L79.2505 49.5129L79.6686 49.4987L81.0124 49.3923L81.1911 49.371L82.4098 49.183L82.6814 49.1298L82.7207 49.1227L83.2103 49.0127L84.1002 48.7822L84.7114 48.5977L85.4583 48.3423L86.7342 47.8351L86.7771 47.8173L86.8557 47.7818L87.3453 47.5513L88.0422 47.193L89.168 46.5474L89.2573 46.4906L89.336 46.441L90.4153 45.7031L91.0729 45.203L91.3516 44.9795L91.5303 44.8305L91.9985 44.419L92.5953 43.855L92.8098 43.6422L93.5889 42.805L94.1106 42.1842L94.1249 42.1665L94.5288 41.6451L95.1042 40.8398L95.4187 40.3574L95.9726 39.428L96.2049 39.0023L96.4229 38.5696L96.6838 38.0162L96.9376 37.4344L97.2414 36.654L97.5523 35.7317L97.6952 35.2422L97.8954 34.4654L98.0312 33.8481V33.8339L98.2456 32.4789L98.3385 31.5814L98.3707 31.0848L98.3993 30.3186V29.9319V29.6694L98.3707 28.921L98.3207 28.2683L98.2778 27.8213L98.1491 26.8955L97.8954 25.5901L97.8882 25.5546L97.8811 25.5298L97.8704 25.4836L97.4951 24.1499L97.37 23.7632L97.0019 22.7806L96.7017 22.0747L96.4122 21.4646L96.3908 21.422L95.9548 20.5955L95.6403 20.0528L95.1399 19.2688L94.7504 18.7083L94.2214 18.0166L94.0856 17.8499L93.6889 17.3746L93.2851 16.9241L92.3666 15.9911L92.2844 15.9131L92.0378 15.6861L91.2087 14.9802L91.0621 14.8631L90.8656 14.7106L90.1079 14.1607L89.1608 13.5329L88.9607 13.4087L88.7927 13.3129L87.7563 12.7525L87.3525 12.5503L86.7485 12.2665L86.5162 12.1636L86.0802 11.9863L85.226 11.6741L84.7614 11.5216L83.893 11.2697L83.2461 11.1101L82.8029 11.0108L82.4956 10.9504L81.1268 10.7412L81.041 10.7305L80.4656 10.6773L79.5543 10.6241H79.4185L78.7859 10.6135L78.7716 10.617Z" fill="#4C8A3F"/>
<path d="M88.5997 18.9602L88.2066 18.9425L88.0351 18.9354L87.3632 18.907L87.1845 18.8999L86.3982 18.868L85.7764 18.8502L85.7192 18.8467L84.7185 18.8077L84.2075 18.7935L84.0859 18.7899L83.0459 18.7686L82.7815 18.7616L82.3919 18.758L81.7379 18.7474L81.3484 18.7438H81.3341L81.0339 18.7403H80.8373L80.2691 18.7367L79.7687 18.7332H79.2183H79.1397H78.0854H78.0747L77.4636 18.7367L77.0276 18.7403L76.395 18.7438L76.2627 18.7474L75.9661 18.7509H75.9232L75.573 18.7545L74.8189 18.7686L74.558 18.7722L74.2256 18.7793L73.1749 18.8041H73.1463L72.5745 18.8254L71.656 18.8644L71.5309 18.8715L70.9305 18.8928L70.2944 18.9212L69.8941 18.9389L69.358 18.9602L69.3116 18.9637L68.9363 18.985L68.9256 19.1979L68.9006 19.7122V19.7512L68.897 19.8186L68.8934 19.9215L68.872 20.5175L68.8505 21.1773L68.8434 21.3582L68.8184 22.1386L68.8077 22.4401L68.8041 22.5749V22.6919V22.7097L68.7969 22.9367L68.8541 22.9332L69.1829 22.9225L70.0692 22.8941L70.1729 22.8906L70.516 22.8835L71.5488 22.8551L71.7096 22.8516L72.1671 22.8409L73.0606 22.8232L73.3715 22.8161L73.8468 22.809L74.4651 22.7984L75.0762 22.7877L75.4801 22.7806H75.4979L75.8982 22.7771L75.8946 23.2666L75.8875 23.7455L75.8839 23.8625V24.0541L75.8732 25.0544L75.8625 26.2747L75.8589 26.6613V26.6897V26.9593L75.8553 28.0306L75.8518 29.1764V29.5098V29.8433V30.5988V31.028V32.1738L75.8553 32.4895V32.8052L75.8589 33.9581L75.866 34.8733L75.8696 35.1287L75.8732 35.4444L75.8768 35.7495L75.8875 36.9414L75.8982 38.0836L75.9018 38.3354L75.9054 38.5767L75.9089 38.7611L75.9268 39.8679L75.9447 41.0207L75.9482 41.2229L75.9518 41.4074L75.9554 41.5528L75.9768 42.6099V42.6241H76.2699H76.8524L76.9847 42.6276H77.0311H78.0711H78.5536H78.6572H79.2076L80.2333 42.6241H80.2548H80.3405L81.016 42.6206H81.3126V42.6135V41.5528V41.489V41.2371V40.964V39.8856L81.309 38.7576V38.6299L81.3126 38.3461V38.0588V36.952V35.7708V35.4515V35.1287V34.8697L81.3162 33.9616V32.8017V32.4931V32.1845V31.0245V30.5953V29.8291V29.5063V29.1835L81.3198 28.0235L81.3233 26.9522V26.6862V26.6507V26.2605V25.0402V24.0576V23.859V23.7207V23.2098V22.7735L81.7057 22.7771H81.7343L82.1382 22.7806L82.7993 22.7913L83.3569 22.8019L83.8644 22.809L84.2432 22.8161L85.0545 22.8303L85.5584 22.8374L85.805 22.8445L86.7342 22.8658L87.2131 22.8764H87.2274L88.2602 22.9083L88.3889 22.9119L88.6605 22.919L88.6569 22.6955V22.6245V22.5146L88.6533 22.3798L88.6498 22.1208L88.6391 21.3404L88.6355 21.1028L88.6283 20.4997L88.6212 19.9286L88.6176 19.7406V19.73L88.6105 19.4994L88.6033 19.1766L88.5997 18.9602Z" fill="#4C8A3F"/>
</g>
<path d="M11.8752 69.8463C13.177 69.8451 15.6366 69.5399 16.3801 70.9342C17.1263 72.334 16.5152 73.2095 15.3381 73.9869C15.5007 74.202 16.6332 75.6525 16.5568 75.815C16.4249 75.8977 15.8534 75.8726 15.6935 75.8756C15.5413 75.7862 15.5479 75.7826 15.4416 75.6275L14.423 74.1646C13.8249 74.1529 13.2265 74.1499 12.6281 74.1559C12.6287 74.5776 12.6882 75.4182 12.5764 75.8258C12.5544 75.8948 11.6699 75.9376 11.6662 75.8102C11.6083 73.8701 11.5982 71.888 11.6564 69.9459C11.6588 69.8901 11.8474 69.8539 11.8752 69.8463ZM12.6457 70.7301C12.6306 71.589 12.6279 72.4483 12.6369 73.3072C13.6529 73.2901 14.3549 73.3801 15.2512 72.9137C15.5896 72.5126 15.6719 72.2896 15.6096 71.7564C15.4592 70.4751 13.4811 70.7136 12.6457 70.7301Z" fill="#4C8A3F"/>
<path d="M85.887 69.8903C87.1933 69.8632 89.8029 69.5451 90.5247 70.8844C91.211 72.1582 90.7745 73.1918 89.5833 73.9108C89.9453 74.4638 90.2896 75.0385 90.6682 75.5709C90.7784 75.7259 90.8879 75.7997 90.6966 75.8473C90.5938 75.8706 90.4907 75.8941 90.388 75.9176C89.8257 75.8525 89.7466 75.9754 89.4895 75.4391C89.2446 74.9278 88.9122 74.4977 88.511 74.1012C87.9704 74.0883 87.4296 74.0808 86.8889 74.0778C86.8845 74.4052 86.9399 75.4898 86.8294 75.7848C86.8105 75.834 86.6691 75.8759 86.6419 75.8659C86.5788 75.8414 85.9395 75.8888 85.93 75.7926C85.8351 74.6827 85.8877 70.7009 85.887 69.8903ZM89.221 70.9518C88.725 70.6401 87.5063 70.7329 86.9075 70.735L86.8997 73.2614C87.9371 73.2623 88.6354 73.4098 89.5139 72.9079C89.9576 72.2375 89.9797 71.4286 89.221 70.9518Z" fill="#4C8A3F"/>
<path d="M120.51 70.0176C120.596 70.0158 121.303 69.9889 121.333 70.0237C122.364 71.1874 123.164 72.7035 124.073 73.9798C124.873 72.702 125.576 71.3595 126.519 70.1607C126.674 69.9639 127.336 69.9667 127.481 70.0683L127.486 70.1338L127.49 70.133C127.529 70.3381 127.445 75.229 127.429 75.8508C127.428 75.9007 127.182 75.9654 127.127 75.9546C127.091 75.9476 126.638 76.0242 126.608 75.9376C126.489 75.589 126.544 74.0009 126.542 73.6545C126.541 73.0261 126.532 72.3979 126.516 71.7699C125.88 72.7246 124.837 74.5134 124.088 75.2601L123.952 75.3991C123.374 74.7217 122.131 72.8102 121.586 72.0077C121.581 72.5172 121.582 73.0418 121.562 73.5494C121.535 73.7272 121.606 75.8176 121.512 75.855C120.231 76.3687 120.53 75.3864 120.531 74.9428C120.535 73.2404 120.494 71.6573 120.51 70.0176Z" fill="#4C8A3F"/>
<path d="M55.7822 69.8711C56.5083 71.6495 57.4259 73.3871 58.1611 75.168C58.1813 75.2161 58.4841 75.8 58.4023 75.834C57.0729 76.367 57.4078 75.34 56.8242 74.5264C56.7559 74.4312 56.2513 74.4703 56.1279 74.4707L53.7393 74.4688C53.5127 74.8981 53.2946 75.4633 52.9902 75.834C52.9197 75.9199 52.185 75.9403 52.085 75.8057C52.0838 75.5609 54.4307 70.6624 54.7227 69.8691C55.0758 69.8624 55.4291 69.8631 55.7822 69.8711ZM55.21 71.0527C54.8257 71.8436 54.4284 72.8195 54.0879 73.6436L55.335 73.6494C55.5023 73.6496 56.3261 73.6963 56.4307 73.584C56.2946 73.236 55.401 71.2147 55.21 71.0527Z" fill="#4C8A3F"/>
<path d="M115.371 69.833C115.695 70.5284 118.013 75.5467 117.993 75.8047C117.858 75.9313 117.267 75.9046 117.205 75.8555C116.933 75.6418 116.599 74.7605 116.462 74.4649L115.497 74.4659L113.394 74.4688C113.177 74.9002 112.978 75.4277 112.713 75.8155C112.644 75.9163 111.828 75.8995 111.761 75.8037C111.754 75.591 114.115 70.4951 114.413 69.8438C114.756 69.8287 115.026 69.8278 115.371 69.833ZM113.74 73.6602C114.256 73.6789 114.74 73.6803 115.256 73.6807C115.557 73.6803 115.859 73.6761 116.16 73.669C115.876 73.1244 115.138 71.328 114.888 71.0811L113.74 73.6602Z" fill="#4C8A3F"/>
<path d="M138.548 74.1566C138.557 73.4401 138.448 70.8578 138.61 70.0496C138.625 69.9726 139.263 70.0083 139.324 70.0079C139.348 70.0078 139.44 70.0386 139.441 70.0714C139.465 71.0412 139.564 75.3057 139.437 76C138.518 75.9226 138.858 76.0469 138.206 75.2436C137.731 74.6586 137.264 74.0692 136.811 73.4628C136.382 72.8903 135.94 72.3284 135.487 71.7777C135.433 73.1602 135.491 74.5559 135.392 75.9215C135.386 76.003 134.492 76.0398 134.501 75.9193C134.567 75.0057 134.405 70.579 134.6 70.0266C134.788 70.0212 134.979 70.0037 135.166 70.0085C135.431 70.0156 138.115 73.6518 138.548 74.1566Z" fill="#4C8A3F"/>
<path d="M5.7254 69.8933C5.97128 69.8956 6.41321 69.8278 6.63556 69.9265C6.77131 69.9877 8.93561 74.8479 9.2547 75.4412C9.29895 75.5235 9.41477 75.6753 9.40021 75.7762C9.39898 75.784 9.39207 75.8125 9.3797 75.8201C9.17871 75.9423 8.6328 75.8716 8.38361 75.8738C8.17525 75.3923 7.98939 74.9144 7.77618 74.4265C7.41225 74.414 7.04772 74.4073 6.68341 74.406L4.57501 74.3875L4.52325 74.493C4.32013 74.897 4.07169 75.4988 3.7713 75.8377C3.73022 75.884 2.95588 75.9142 3.02228 75.7654C3.89818 73.8159 4.76028 71.8023 5.7254 69.8933ZM6.10626 71.1463L6.02423 71.2898C5.70967 71.8557 5.22895 72.993 4.93341 73.6297L6.14044 73.6336C6.55117 73.6336 6.99321 73.6438 7.40021 73.6189C7.21949 73.228 6.34677 71.1824 6.19611 70.9842L6.10626 71.1463Z" fill="#4C8A3F"/>
<path d="M106.459 70.0112C107.482 69.9619 108.714 70.048 109.43 70.8293C109.605 71.0203 109.419 71.1677 109.237 71.2836C108.695 71.6283 108.286 71.0038 107.612 70.9322C106.806 70.8466 106.111 70.9433 105.415 71.3774C103.785 72.6096 104.849 75.2198 106.973 75.1721C108.708 75.1332 108.392 74.8292 108.392 73.5217L108.392 73.2662C108.394 72.7513 108.82 72.9501 109.3 72.9607L109.395 72.9623L109.392 75.3662C108.381 75.9136 107.434 76.1232 106.286 75.9291C102.546 75.2967 102.54 70.7097 106.459 70.0112Z" fill="#4C8A3F"/>
<path d="M145.047 70.0109C145.794 69.9583 146.909 70.0736 147.481 70.8683C147.609 71.045 147.041 71.5888 146.966 71.5293C146.501 71.1559 146.382 71.0352 145.802 70.9421C143.819 70.6234 142.764 72.6101 143.849 74.3826C144.352 75.2048 145.75 75.3894 146.506 74.8554C146.687 74.7272 146.61 73.7408 146.61 73.4983C146.608 73.0798 146.564 72.6895 147.403 73.0139C147.464 73.0378 147.443 73.7654 147.444 73.9276C147.446 74.3828 147.452 74.9102 147.453 75.3891L147.339 75.4502C142.731 77.9823 140.368 71.0027 145.047 70.0109Z" fill="#4C8A3F"/>
<path d="M77.5346 70.0175C77.7063 70.0145 78.3106 69.9558 78.4575 70.0716C78.4988 70.1262 78.5035 70.2342 78.503 70.2958C78.4956 71.2357 78.4953 72.1664 78.4921 73.1071C78.4901 73.7239 78.4602 74.299 78.9238 74.7549C79.2302 75.0562 79.5416 75.1948 79.9745 75.1703C81.5515 75.0805 81.5224 73.9555 81.5244 72.6359L81.5194 70.5806C81.5171 69.8525 81.5131 70.0331 82.1364 70.0031C82.563 69.9827 82.4935 70.1573 82.4894 70.5083L82.4891 70.6465C82.485 71.7069 82.5348 72.8375 82.4505 73.8889C82.275 76.6934 77.9031 76.6516 77.5723 74.0733C77.4371 73.0189 77.5326 71.1252 77.5346 70.0175Z" fill="#4C8A3F"/>
<path d="M43.9491 70.0005C45.1656 69.987 45.6412 70.2272 46.5 70.929C46.2384 71.1353 46.1059 71.2322 45.81 71.4035C44.4558 70.7903 43.1085 70.5401 41.9291 71.8536C41.5003 72.3312 41.5146 73.4471 41.8029 73.9998C42.3817 75.1095 44.1248 75.4716 45.2775 74.9123C45.6634 74.7474 46.0304 74.5003 46.3179 74.9438C46.3556 75.0017 46.3975 75.1237 46.3409 75.1842C45.3124 76.2376 43.2063 76.207 41.9788 75.4574C40.4582 74.5287 39.9947 72.5124 41.1359 71.1728C41.8501 70.3345 42.834 70.1194 43.9491 70.0005Z" fill="#4C8A3F"/>
<path d="M93.5086 70.0209C94.4463 70.0143 95.4202 70.0166 96.3287 70.0224C96.7161 70.0248 97.3982 69.9112 97.4929 70.1741C97.5068 70.213 97.5051 70.7807 97.4438 70.7887C96.4909 70.9141 95.4336 70.8186 94.4385 70.8585C94.4291 71.5325 94.4279 72.2066 94.4351 72.8806C95.2344 72.8884 96.0336 72.8892 96.8329 72.8827C97.2905 72.9225 97.123 73.3314 97.0735 73.6242C97.057 73.7206 94.62 73.7098 94.4342 73.7171C94.4346 74.411 94.4848 75.2246 94.3941 75.8952C94.371 76.0627 93.5657 75.9916 93.563 75.9392C93.4697 74.2184 93.5072 71.6761 93.5086 70.0209Z" fill="#4C8A3F"/>
<path d="M30.509 70.0135C31.7983 69.9949 33.1049 69.9911 34.3919 70.031C34.5563 70.036 34.4983 70.7519 34.4442 70.7579C33.4755 70.8623 32.408 70.7875 31.4155 70.82C31.4067 71.4971 31.4028 72.1744 31.4035 72.8516C32.2788 72.8669 33.154 72.8729 34.0293 72.8693C34.328 73.0079 34.1226 73.6043 34.0948 73.6067C33.3163 73.6725 32.2215 73.6405 31.4496 73.6467C31.4482 74.28 31.5291 75.3352 31.3932 75.9297C31.3683 76.0383 30.5825 76.0072 30.5684 75.9298C30.4658 75.3618 30.5093 74.6821 30.5083 74.093C30.5057 72.7335 30.5092 71.3732 30.509 70.0135Z" fill="#4C8A3F"/>
<path d="M19.9822 70.0299C21.0874 70.0235 22.3421 69.9513 23.4175 70.0576C23.4524 70.0611 23.7307 71.0371 23.0176 70.8696C22.9101 70.8445 21.6764 70.8696 21.4748 70.8714C21.4635 72.4468 21.4599 74.0221 21.4644 75.5975C21.4522 76.3165 20.5911 75.845 20.5945 75.8833C20.4542 74.2588 20.5227 72.5166 20.5196 70.8756C19.9597 70.8566 19.1068 70.9011 18.5824 70.7849C18.5506 70.7779 18.3259 70.0141 18.7885 70.036C19.0942 70.0504 19.653 70.0308 19.9822 70.0299Z" fill="#4C8A3F"/>
<path d="M70.5 70.0231C72.1133 69.9966 73.839 69.9763 75.4364 70.0603C75.5307 70.0651 75.5169 70.673 75.4165 70.7374C75.0636 70.9641 73.9206 70.8675 73.5392 70.8707L73.544 73.9859C73.544 74.5316 73.6079 75.4076 73.4924 75.9203C73.4667 76.0338 72.5906 76.0188 72.585 75.9211C72.492 74.2672 72.5513 72.5325 72.5466 70.8595C72.1746 70.8532 70.9555 70.8406 70.5766 70.7371C70.4946 70.7148 70.5054 70.1402 70.5 70.0231Z" fill="#4C8A3F"/>
<path d="M60.5028 70.0272C60.7086 70.0241 61.2456 69.9429 61.4131 70.0769C61.5044 70.1499 61.4359 74.6604 61.4444 75.1662C62.0194 75.1811 63.7786 75.1528 64.4227 75.2259C64.5074 75.2356 64.4945 75.855 64.5 76L60.5 75.9992L60.5028 70.0272Z" fill="#4C8A3F"/>
<path d="M130.523 70.0037C131.797 69.9933 131.452 69.9198 131.471 71.3992C131.491 72.9245 131.458 74.4591 131.47 75.9863C131.256 75.982 130.723 76.0507 130.558 75.9157C130.461 75.836 130.512 70.609 130.523 70.0037Z" fill="#4C8A3F"/>
<path d="M48.5127 70.0309C48.6723 70.0255 49.3409 69.9443 49.4484 70.0691C49.5452 70.1814 49.4772 75.3386 49.471 75.9712C49.27 75.9755 48.744 76.0548 48.5888 75.9302C48.451 75.8196 48.5154 70.6194 48.5127 70.0309Z" fill="#4C8A3F"/>
<path d="M37.5127 70.0309C37.6723 70.0255 38.3409 69.9443 38.4484 70.0691C38.5452 70.1814 38.4772 75.3386 38.471 75.9712C38.27 75.9755 37.744 76.0548 37.5888 75.9302C37.451 75.8196 37.5154 70.6194 37.5127 70.0309Z" fill="#4C8A3F"/>
<path d="M26.516 70.014C26.7046 70.011 27.4792 69.9493 27.4826 70.1111C27.5178 71.7668 27.4882 74.4145 27.4914 75.9776C27.3314 75.9789 26.6803 76.0556 26.5654 75.9177C26.4536 75.7835 26.5199 70.7065 26.516 70.014Z" fill="#4C8A3F"/>
<defs>
<clipPath id="clip0_828_4679">
<rect width="157" height="64" fill="white"/>
</clipPath>
</defs>
</svg>
